<svg xmlns="http://www.w3.org/2000/svg" viewBox="0 0 100 100" width="100%" height="100%">
  <defs>
    <linearGradient id="favicon-shield-grad" x1="0%" y1="0%" x2="100%" y2="100%">
      <stop offset="0%" stopColor="#2ecc71" />
      <stop offset="50%" stopColor="#27ae60" />
      <stop offset="100%" stopColor="#1e8449" />
    </linearGradient>
    <linearGradient id="favicon-gold-grad" x1="0%" y1="0%" x2="100%" y2="100%">
      <stop offset="0%" stopColor="#ffd700" />
      <stop offset="50%" stopColor="#f1c40f" />
      <stop offset="100%" stopColor="#d4af37" />
    </linearGradient>
    <linearGradient id="favicon-cyan-grad" x1="0%" y1="0%" x2="100%" y2="100%">
      <stop offset="0%" stopColor="#00c6ff" />
      <stop offset="100%" stopColor="#0072ff" />
    </linearGradient>
  </defs>
  <path d="M50,10 L85,25 L85,60 C85,78 70,90 50,95 C30,90 15,78 15,60 L15,25 Z" fill="url(#favicon-shield-grad)" stroke="url(#favicon-gold-grad)" strokeWidth="3" />
  <path d="M50,15 L78,28 L78,58 C78,73 66,84 50,89 C34,84 22,73 22,58 L22,28 Z" fill="none" stroke="#ffffff" strokeWidth="1" strokeOpacity="0.25" />
  <path d="M35,35 Q50,50 65,35" fill="none" stroke="url(#favicon-gold-grad)" strokeWidth="4" strokeLinecap="round" />
  <path d="M35,65 Q50,50 65,65" fill="none" stroke="url(#favicon-gold-grad)" strokeWidth="4" strokeLinecap="round" />
  <path d="M65,35 Q50,20 35,35" fill="none" stroke="url(#favicon-cyan-grad)" strokeWidth="3" strokeLinecap="round" strokeOpacity="0.8" />
  <path d="M65,65 Q50,80 35,65" fill="none" stroke="url(#favicon-cyan-grad)" strokeWidth="3" strokeLinecap="round" strokeOpacity="0.8" />
  <line x1="42" y1="28" x2="58" y2="28" stroke="url(#favicon-gold-grad)" strokeWidth="1.5" />
  <line x1="38" y1="35" x2="62" y2="35" stroke="url(#favicon-gold-grad)" strokeWidth="1.5" />
  <line x1="38" y1="65" x2="62" y2="65" stroke="url(#favicon-gold-grad)" strokeWidth="1.5" />
  <line x1="42" y1="72" x2="58" y2="72" stroke="url(#favicon-gold-grad)" strokeWidth="1.5" />
  <circle cx="50" cy="50" r="5" fill="#ffffff" />
</svg>